<svg id="Layer_1" data-name="Layer 1" xmlns="http://www.w3.org/2000/svg" xmlns:xlink="http://www.w3.org/1999/xlink" viewBox="0 0 1895.35 1006.5"><defs><style>.cls-1,.cls-37,.cls-42{fill:#bb0029;}.cls-2{fill:#f5841a;}.cls-3{fill:#f2e8c6;}.cls-4{fill:#87663a;}.cls-5{fill:#7e695b;}.cls-6{fill:#918c87;}.cls-7{fill:#aaa396;stroke:#878076;}.cls-52,.cls-57,.cls-60,.cls-64,.cls-65,.cls-66,.cls-67,.cls-7{stroke-miterlimit:10;}.cls-8{fill:#878076;}.cls-9{fill:#4c3214;}.cls-10,.cls-57{fill:#e5b08f;}.cls-11{fill:#c49572;}.cls-12{fill:#efe7e4;}.cls-13{fill:#ddd9d7;}.cls-14{fill:#e1b189;}.cls-15{fill:url(#radial-gradient);}.cls-16{fill:#e0dcdc;}.cls-17{fill:#c18a6b;}.cls-18{fill:url(#linear-gradient);}.cls-19{fill:url(#radial-gradient-2);}.cls-20,.cls-21{fill:#d8a284;}.cls-20{opacity:0.7;}.cls-22{fill:#731624;}.cls-23{fill:#8f4550;opacity:0.54;}.cls-24{fill:#56101b;}.cls-25{fill:#c7a2a7;}.cls-26{fill:#cfb7b4;}.cls-27{fill:#f4eced;}.cls-28{fill:#ed1c24;}.cls-29{fill:#d1766b;}.cls-30{fill:#13171c;}.cls-31{fill:#34414b;}.cls-32{fill:#463934;opacity:0.5;}.cls-33{fill:#8b909f;}.cls-34{fill:#1a1f22;}.cls-35{fill:#232c33;}.cls-36{fill:#c7c8cb;}.cls-37{font-size:4.67px;}.cls-37,.cls-42{font-family:GoldenRatioDemo-Regular, Golden Ratio Demo;}.cls-38{letter-spacing:-0.08em;}.cls-39{letter-spacing:-0.03em;}.cls-40{letter-spacing:-0.02em;}.cls-41{letter-spacing:-0.03em;}.cls-42{font-size:3.96px;}.cls-43{letter-spacing:-0.08em;}.cls-44{letter-spacing:-0.03em;}.cls-45{letter-spacing:-0.02em;}.cls-46{letter-spacing:-0.03em;}.cls-47{fill:#725a49;}.cls-48{fill:#413834;}.cls-49{fill:#333139;}.cls-50{fill:#8a705c;}.cls-51{fill:#be9e7d;}.cls-52,.cls-65,.cls-66{fill:none;}.cls-52{stroke:#000;}.cls-53{fill:#191e20;}.cls-54{fill:#212933;}.cls-55{fill:#5f6a7c;}.cls-56{fill:#464c54;}.cls-57{stroke:#c6977d;}.cls-58{fill:#5a6476;}.cls-59,.cls-67{fill:#faf0e3;}.cls-60,.cls-61{fill:#d1c4b4;}.cls-60,.cls-66,.cls-67{stroke:#9d7868;}.cls-62{fill:#252b2d;}.cls-63{fill:#29373f;}.cls-64{fill:#fefefd;}.cls-64,.cls-65{stroke:#7e818f;}.cls-66{stroke-width:0.5px;}</style><radialGradient id="radial-gradient" cx="-505.37" cy="-25.67" r="6.92" gradientTransform="matrix(0, -0.98, -0.76, 0, 1304.44, -200.32)" gradientUnits="userSpaceOnUse"><stop offset="0" stop-color="#a9a8a8"/><stop offset="0.37" stop-color="#2c2829"/><stop offset="1"/></radialGradient><linearGradient id="linear-gradient" x1="1278.5" y1="234.65" x2="1451.93" y2="234.65" gradientUnits="userSpaceOnUse"><stop offset="0.16" stop-color="#181834"/><stop offset="0.96" stop-color="#101228"/></linearGradient><radialGradient id="radial-gradient-2" cx="1395.65" cy="301.15" r="6.92" gradientTransform="translate(2.06 -75)" xlink:href="#radial-gradient"/></defs><title>home page</title><path class="cls-1" d="M1892.46,557.26c-8-96-67-181-162.38-206.16-20-5.29-29.8-13.34-34.63-34.17-15.09-65-69.22-106.69-136.32-104-25.4,1-50.47,10.06-77.77,15.89-2.36-3.76-6.33-9.65-9.86-15.78C1410.22,106.85,1289.14,54.3,1170.58,82.57c-88.83,21.18-158.53,82.68-190.34,164.52A277,277,0,0,0,963,318.54C960.32,344,952.3,360,927.6,372.39c-61.92,31.16-99.38,101.23-106.07,173.34-6.56,70.61,16.38,143.19,74.74,183.11,42.36,29,87.87,47.26,138.63,47.48l14.9.06q314.68,1.27,629.39-.07c26.89-.15,55.32-5.88,82.36-16.79C1836.6,729.23,1901,659,1892.46,557.26Z" transform="translate(-3.44 -75)"/><path class="cls-2" d="M1812.21,916.83c-4.76-56.85-22.15-111-50.66-157.31-39.62-64.45-100.73-113.85-179.25-134.59-28.34-7.49-42.18-18.89-49-48.38-21.36-92.1-98-151.06-193-147.19-36,1.47-71.47,14.25-110.12,22.5-3.34-5.32-9-13.66-14-22.34-53.41-92.62-138.93-156.41-235.94-182.43a386.4,386.4,0,0,0-190.12-2.38C686,269.55,600.36,333.56,548.44,420.65a387.55,387.55,0,0,0-52.23,158.17c-3.79,36-15.14,58.64-50.12,76.24C304.5,726.31,253.26,941.24,329.9,1080H1775.73C1802.86,1034.92,1817.52,980.19,1812.21,916.83Z" transform="translate(-3.44 -75)"/><path class="cls-3" d="M1075.46,869.26a256.15,256.15,0,0,0-25.66-92.88C1022.68,722,975.72,679.65,913.08,663.1c-20-5.29-29.8-13.34-34.63-34.17-8.39-36.17-28.86-65.11-56.92-83.2-22.39-14.44-49.62-22-79.4-20.75-25.4,1-50.47,10.06-77.77,15.89-2.36-3.76-6.33-9.65-9.86-15.78A276.22,276.22,0,0,0,548.44,420.65a271.77,271.77,0,0,0-194.86-26.08C240.4,421.55,158.29,514,146,630.54,143.32,656,135.3,672,110.6,684.39-12,746.05-38.68,960.16,79.27,1040.84c25.57,17.5,52.3,31.09,80.63,39.16H919.64C1004.66,1056.2,1084.92,982.13,1075.46,869.26Z" transform="translate(-3.44 -75)"/><polygon class="cls-4" points="1340.56 720 665.06 920.5 104.06 832.5 779.56 632 1340.56 720"/><path d="M713.6,763.84S668,781,698,816C698,816,662.2,782.68,713.6,763.84Z" transform="translate(-3.44 -75)"/><polygon class="cls-5" points="1605.9 1005 1568.43 953.27 1450.57 1003.84 1605.9 1005"/><polygon class="cls-6" points="1256.78 915.51 1256.78 824.99 1106.32 809.66 1228.46 760.81 1305.5 766.56 1305.5 915.51 1256.78 915.51"/><polygon class="cls-7" points="1305.5 771.35 1330.34 766.56 1330.34 915.51 1305.5 915.51 1305.5 771.35"/><polygon class="cls-7" points="1330.34 766.71 1355.17 761.77 1355.17 915.51 1330.34 915.51 1330.34 766.71"/><polygon class="cls-8" points="1355.17 761.77 1260.6 750.27 1210.92 766.56 1305.5 771.35 1355.17 761.77"/><polygon class="cls-8" points="151.17 882.77 151.17 1006 126.34 1006 126.34 887.71 127.04 887.57 151.17 882.77"/><polygon class="cls-6" points="708.5 929.56 708.5 1006 659.78 1006 659.78 987.99 151.17 920.15 127.56 917 127.04 887.57 126.56 860 618.76 918.83 639.2 921.28 688.89 927.22 708.5 929.56"/><polygon class="cls-7" points="733.34 929.56 733.34 1006 708.5 1006 708.5 934.35 733.34 929.56"/><polygon class="cls-7" points="758.17 924.77 758.17 1006 733.34 1006 733.34 929.71 758.17 924.77"/><polygon class="cls-8" points="758.17 924.77 663.6 913.27 613.92 929.56 708.5 934.35 758.17 924.77"/><polygon class="cls-9" points="619.56 946 1448.28 721.45 1448.28 689.84 618.56 912 619.56 946"/><polygon class="cls-10" points="1418.89 298.37 1431.08 314.12 1363.73 468.77 1312.27 465.69 1313.9 364.39 1313.9 340.67 1418.89 298.37"/><path class="cls-10" d="M1294.65,362s-7.28,1.38-12.29-17.19-6.75-38.55-11-42.31,2.38-13,7.34-6.58S1286.9,216,1286.9,216l71-37.54s51.43,34.29,56.12,36.71,26.74,31.08,26.74,31.08l4.2,52.08s.35,9.1,1.51,8,1.16-7.4,5.93-5.86-2.85,28.91-2.85,28.91-8.7,51.88-18.93,32.67c0,0-2.56,64.89-63.57,81.79,0,0-27,4.44-41-7.66-8-8.21-17.51-31-20.82-32.56S1291.47,363.24,1294.65,362Z" transform="translate(-3.44 -75)"/><path class="cls-11" d="M1344.6,302.53s-20.32-20.78-40.49-2.13C1304.11,300.4,1323.63,306.92,1344.6,302.53Z" transform="translate(-3.44 -75)"/><path class="cls-12" d="M1344.46,302s-20.32-20.78-40.49-2.13C1304,299.85,1323.49,306.37,1344.46,302Z" transform="translate(-3.44 -75)"/><path class="cls-13" d="M1307.32,300.79c-2.14-.54-3.35-.94-3.35-.94,13-12.06,26.14-7.64,33.77-3C1330.08,293,1318.71,290.72,1307.32,300.79Z" transform="translate(-3.44 -75)"/><path class="cls-14" d="M1344.44,302.11s.73-6.86-10.75-11.69c0,0-21.21-9.81-29.77,9.79C1303.92,300.21,1328.06,284.36,1344.44,302.11Z" transform="translate(-3.44 -75)"/><ellipse class="cls-15" cx="1324.66" cy="297.27" rx="5.28" ry="6.81" transform="translate(818.32 1483.3) rotate(-80.91)"/><ellipse class="cls-16" cx="1327.71" cy="296.36" rx="1.77" ry="2.28" transform="translate(821.79 1485.54) rotate(-80.91)"/><path class="cls-14" d="M1344.44,302.11s.73-6.86-10.75-11.69c0,0-21.21-9.81-29.77,9.79C1303.92,300.21,1328.06,284.36,1344.44,302.11Z" transform="translate(-3.44 -75)"/><path class="cls-11" d="M1334,291.43s-20.14-9.31-29.09,8.35c-.49.29-.75.46-.75.46,8.56-19.6,29.77-9.78,29.77-9.78,10.48,4.4,10.78,10.51,10.76,11.53C1344.33,299.85,1342.61,295.06,1334,291.43Z" transform="translate(-3.44 -75)"/><path class="cls-17" d="M1452.44,300.42c-4.77-1.54-4.76,4.76-5.93,5.86s-1.51-8-1.51-8l-4.2-52.08s-22-28.66-26.74-31.08-56.12-36.71-56.12-36.71l-4.17,2.21c13.3,8.84,47,31.2,50.77,33.14,4.7,2.42,26.73,31.08,26.73,31.08l4.2,52.08s.35,9.09,1.52,8,1.16-7.39,5.93-5.85-2.85,28.91-2.85,28.91-.2,45-10.44,25.82c0,0-11.05,71.74-72.07,88.63a81.33,81.33,0,0,1-16.78.63c12.83,2.95,26.31.74,26.31.74,61-16.9,63.57-81.79,63.57-81.79,10.23,19.21,18.93-32.67,18.93-32.67S1457.21,302,1452.44,300.42Z" transform="translate(-3.44 -75)"/><path class="cls-18" d="M1287.41,320c-1.27-4.07-6.44-20.5-8.42-23.67a.55.55,0,0,1,.08-.66c.37-.4.79-1.52.23-4.62-.87-4.81-2.88-97,6.45-104.74a43.69,43.69,0,0,1,5.27-9.66c6.12-9,10-9.12,10.71-9.15,1.36,0,10.85-4.5,11.44-4.66a94.82,94.82,0,0,0,9.19-5.88c.83-.79,10.88,0,14.53-5.26s17.11-.48,18.27-1.24,6.54-5.37,11.67-4.19,24.78,5.24,26.45,7.59,14.87,7.67,16,8,12.68,3.76,16,8.88S1437,183.46,1439.6,190c2.5,6.29,9.29,18,9.88,19a.58.58,0,0,1,0,.14c.29,1.22,3.67,16.14,1.87,21.91-1.87,6-1.36,37.46-2.21,40.76s-2.14,27.28-.31,29.49c1.59,1.92-5.4,17.51-7.28,21.6a.54.54,0,0,1-1,0,57.63,57.63,0,0,1-5.82-29.36c1.1-16.75-5.21-32-5.94-33.72a.58.58,0,0,1,0-.32c.45-2.27,4.76-28.06-27.74-42.42-33.63-14.86-66.06-9-66.81-8.9h0c-.72.17-27.67,6.77-29.52,20.43a.54.54,0,0,1-.72.43c-2.55-.9-11.79-2.68-11.09,19.24a.52.52,0,0,1,0,.24c-.61,1.39-6.7,15.79-2.91,31.13S1288.9,318,1288.46,320a.47.47,0,0,1-.13.24h0A.54.54,0,0,1,1287.41,320Z" transform="translate(-3.44 -75)"/><path class="cls-11" d="M1376.38,303.81s23.61-22.71,40.83,5.56C1417.21,309.37,1396.66,313.8,1376.38,303.81Z" transform="translate(-3.44 -75)"/><path class="cls-12" d="M1376.61,303.13s23.61-22.71,40.83,5.56C1417.44,308.69,1396.88,313.12,1376.61,303.13Z" transform="translate(-3.44 -75)"/><path class="cls-13" d="M1413.94,309.22c2.23-.26,3.5-.53,3.5-.53-11.13-18.27-24.93-15.25-33.3-10.82C1392.41,294.49,1404.14,293.85,1413.94,309.22Z" transform="translate(-3.44 -75)"/><path class="cls-14" d="M1376.61,303.31s.35-9,12.59-12.92c0,0,22.77-8.34,28.24,18.78C1417.44,309.17,1395.79,283.7,1376.61,303.31Z" transform="translate(-3.44 -75)"/><ellipse class="cls-19" cx="1393.71" cy="226.11" rx="6.9" ry="6.92"/><ellipse class="cls-16" cx="1390.81" cy="224.3" rx="2.31" ry="2.32"/><path class="cls-14" d="M1376.61,303.31s.35-9,12.59-12.92c0,0,22.77-8.34,28.24,18.78C1417.44,309.17,1395.79,283.7,1376.61,303.31Z" transform="translate(-3.44 -75)"/><path class="cls-11" d="M1388.76,291.64s21.62-7.91,27.78,16.78c.45.47.68.75.68.75-5.47-27.12-28.23-18.78-28.23-18.78-11.18,3.55-12.45,11.38-12.59,12.72C1377.07,300.4,1379.55,294.56,1388.76,291.64Z" transform="translate(-3.44 -75)"/><path class="cls-20" d="M1344.13,324.91s-10.54,17.94-3.32,20.44,8.9,7.47,8.9,7.47,4.34,6.54,11.59-1.39c2.7-2.15,11.63-2.43,12.82-1.83s12.59,5.5-1.78-48.05c-2.24-8.7,12.34-21.86,28.78-18.62s-43.83-27.26-43,28.13A19.47,19.47,0,0,1,1344.13,324.91Z" transform="translate(-3.44 -75)"/><path class="cls-17" d="M1374,279.28c-5.21,3.94-8.14,9.27-7,13.52,14.37,53.55,3,48.65,1.77,48.05s-10.11-.31-12.81,1.83c-7.26,7.94-11.6,1.4-11.6,1.4s-1.15-3.41-5.65-6c-.71,3.39-.44,6.36,2.19,7.27,7.23,2.5,8.9,7.47,8.9,7.47s4.33,6.54,11.59-1.39c2.7-2.15,11.63-2.43,12.82-1.83s12.59,5.5-1.78-48.05c-2.25-8.7,12.33-21.86,28.78-18.62C1411.78,285,1390.23,273,1374,279.28Z" transform="translate(-3.44 -75)"/><path d="M1304.18,282.75a5,5,0,0,0-1.91-2l-.18.15A10.14,10.14,0,0,1,1304.18,282.75Z" transform="translate(-3.44 -75)"/><path d="M1345.22,279.11a9.87,9.87,0,0,1,1.84,4.43c-.41-.91-.74-1.73-1.13-2.48a8.57,8.57,0,0,0-3.59-3.7c-.45-.23-.87-.56-1.32-.79-2.36-1.19-4.68-2.56-7.19-3a.31.31,0,0,0-.25.07,11.75,11.75,0,0,1,5.51,3.23,21.37,21.37,0,0,0-6.78-3.1c-2.36-.61-4.67-1.47-7.1-1.46l1.26.3a.43.43,0,0,0,0,.05l-6.74-.34v-.13h3v-.36c-.91,0-1.83-.06-2.74,0a15,15,0,0,0-2.8.5c-.92.26-1.81.67-2.75,1l.63-.53,0-.11c-.22.1-.44.19-.65.3-1.74.93-3.5,1.79-5.2,2.83s-3.11,2-4.62,3.16a7.49,7.49,0,0,1,2.19,3.32c-.86-.95-1.77-1.94-2.69-2.94l-.16.12a12.78,12.78,0,0,1,2.55,3.06c-.8-.85-1.57-1.77-2.43-2.55l-.37-.31-.17.13a9.49,9.49,0,0,1,2.52,3.15,11.81,11.81,0,0,0-2.74-3l-.24.19a11.26,11.26,0,0,1,2.91,3.39l.36-.08c.67-.13,1.35-.11,2-.28h-1.67a2.41,2.41,0,0,1,2-.42,2.86,2.86,0,0,1-.07-.28l-1.14-.15c0,.11.09.22.14.34h-.17l-.16-.37h-.08c0-.06,0-.13,0-.19-.3-.7-.61-1.4-.91-2.11l.23,0c.29.7.57,1.41.86,2.11l1.11-.17c0-.07,0-.14,0-.21h0v0c-.14-.62-.27-1.24-.4-1.81a5.12,5.12,0,0,1,.66,1.67l2.86.31v-.08l-2.58-.59c1.13-.86,2.14,0,3.16-.14l-.66-.23c0-.05,0-.11,0-.16l3.67.42a.17.17,0,0,1,0-.07l-3.37-1.21s0-.08,0-.12a2.41,2.41,0,0,1,.71,0c1.14.35,2.28.73,3.43,1.09a.56.56,0,0,0,.47,0l-2.37-.86c1.58-.2,3,.71,4.58.83l-3.94-1.52c0-.08,0-.16,0-.23l6.39,1.89,0-.13-2.56-1.05,0-.17,3.72,1a.77.77,0,0,1,0-.15l-3.86-1.48a2.74,2.74,0,0,1,0-.28l6.79,2.3s0-.09,0-.13l-2.89-1.21a1.42,1.42,0,0,0,0-.2l5.24,1.65v0l-5.22-2.66,0-.2c2.64.77,5,2.5,7.62,3.57l-4.16-3.1a2.09,2.09,0,0,1,.08-.23q2.49,1.73,5,3.43l0-.09-.64-.67a2.44,2.44,0,0,1,.3.09c.92.49,1.84,1,2.77,1.47.46.24.93.46,1.52.75l-3.22-3.27.06-.14,4.08,3.45a.54.54,0,0,1,.07-.13l-3.5-3.51c1.8.92,3.14,2.85,4.77,4.14l-1.39-1.64,0-.05,1.93,1.56.1-.21-3-2.84a1.24,1.24,0,0,1,.1-.2c.63.57,1.27,1.11,1.88,1.72s1.18,1.3,1.84,1.85l-.35-.58a.31.31,0,0,1,0-.1l1.83,2a18,18,0,0,0-2.48-3.69,5.56,5.56,0,0,0,.51.47,9.39,9.39,0,0,1,.87.58,6.11,6.11,0,0,1,.94,1c.39.53.74,1.12,1.18,1.63-.08-.24-.17-.47-.25-.71a.86.86,0,0,0,.07-.1l1.29,1.57c.1-.66,0-.81-1.67-3.32,1.83,1.52,1.49,1.07,2.64,3.57l-1-2.62c.23.31.46.61.67.93a9.68,9.68,0,0,1,.63,1.09,11.85,11.85,0,0,1,.47,1.22l.14-.07-.49-2.19.6,1.08c-.4-1.61-1.37-2.62-2.14-3.9,1.08.77,2,2.41,2.89,4.92-.12-.6-.24-1.2-.37-1.8l0,0c.14.37.28.73.4,1.1s.23.77.4,1.35c.22-1.73-.52-2.85-.85-4.15a12.79,12.79,0,0,1,1.75,4.75l-.36-3.42.1,0c.22,1.38.45,2.76.67,4.05.6-1.85.3-3.9.16-6a16,16,0,0,1,.79,5.74C1348.65,285.06,1347.28,280.24,1345.22,279.11Zm-36.65-1.42-.09-.16,3-2.88.09.18Zm5.38,1.75-1.49-.35a2,2,0,0,1,0-.24l1.49.39A1.42,1.42,0,0,0,1314,279.44Zm5.75-4.41-2.36-.24A2.29,2.29,0,0,1,1319.7,275Zm-4.61-.16a1.85,1.85,0,0,0,0-.23l1.28-.36,0,.2Zm5.1,3.29-3.55-1.14.06-.32,3.52,1.18Zm3.36-5.3,2.61.75,0,.18-2.62-.7A1.85,1.85,0,0,1,1323.55,272.86Zm3,5-4-1.74.06-.29,4,1.83C1326.61,277.69,1326.6,277.76,1326.58,277.83Zm1.4-2.41,2.85,1.54a1.8,1.8,0,0,0-.08.21l-2.81-1.6C1328,275.52,1328,275.47,1328,275.42Zm3,4.64-2.22-1.59a1.34,1.34,0,0,0,.07-.18l2.22,1.58A1.46,1.46,0,0,1,1330.94,280.06Zm1,.61,1.22,1-.09.2-1.22-1Zm2.34-3.21-3.11-1.69a1,1,0,0,1,0-.16l3.1,1.69C1334.29,277.35,1334.27,277.4,1334.26,277.46Zm7.2,6.65-3.18-3.59A11.11,11.11,0,0,1,1341.46,284.11Zm-4.26-5.71a9.77,9.77,0,0,1,3.78,3.38Zm5.39,2.67-1.52-1.46c0-.05,0-.1.08-.14l1.51,1.45Zm-1.32-2a6.56,6.56,0,0,1,2.47,2.64Zm3.47,2.68c-.46-.68-.91-1.37-1.36-2l.11-.13c.44.69.89,1.38,1.34,2.07Zm2.39,4.58c-.24-3.61-2.1-5.66-3.83-7.84a12.57,12.57,0,0,1,2.78,3.58A6.35,6.35,0,0,1,1347.13,286.36Z" transform="translate(-3.44 -75)"/><path d="M1300.84,283l-.63-.3-.21.21a6.57,6.57,0,0,1,.61.26Z" transform="translate(-3.44 -75)"/><path d="M1304,285.34l-.17.07.2,0Z" transform="translate(-3.44 -75)"/><path d="M1303,285.49l.69-.44s0-.07,0-.1l-1.28.36c1.16-1,2.52-.37,3.9-1h-.94l.06.13-.14-.13h-.91a2.54,2.54,0,0,0,0-.29l.12,0a13.13,13.13,0,0,0-3.37-2.19l-.13.12.66.43.15-.11a2,2,0,0,1,.08.22l0,0a5.52,5.52,0,0,1,1.84,1.83c-.49-.35-.81-.59-1.14-.81s-.66-.42-1-.63c0,0,0,0,0,.07.46.4.92.8,1.39,1.19-.65-.41-1.25-.76-1.81-1.06l-.23.18a6.91,6.91,0,0,1,.83.54l-1-.41,0,0,1.6,1.32a.61.61,0,0,1-.07.14c-.37-.23-.73-.48-1.11-.67a7,7,0,0,0-.91-.38l-.31.24,1.3.82-1.4-.73-.45.38a1.54,1.54,0,0,1,.89.66l.29-.2.08.26-1.72,1-.06-.14,1.32-.9-1.31-.29-.22.19.33.21-.45-.11-.27.24a2.67,2.67,0,0,0-.37.38l.32.16-.4-.06c-.28.34-.54.71-.83,1-.58.65-1.19,1.28-1.78,1.91a1.24,1.24,0,0,0-.35.42c.59-.32,1.17-.89,1.76-.89,1.39,0,2.64-.78,4-1.13a6,6,0,0,0,1.77-.91l-4.16,1.47c0-.08,0-.15,0-.23l5.72-2.26Zm-6.59,2.68-.09-.27,2.2-1.41c0,.11.07.22.11.33Z" transform="translate(-3.44 -75)"/><path d="M1302.43,281.69l0,.09,2.13,2.21.3-.1Z" transform="translate(-3.44 -75)"/><path d="M1308.93,281.82l-.21-.06v.09Z" transform="translate(-3.44 -75)"/><path d="M1309.28,282.76v-.2l-.46-.06a2.46,2.46,0,0,1,0,.26Z" transform="translate(-3.44 -75)"/><path d="M1305.93,281.07a10.61,10.61,0,0,0-1.57-2,.27.27,0,0,1-.08.07l-.09.07c.14.13.29.25.42.39C1305.07,280.08,1305.49,280.58,1305.93,281.07Z" transform="translate(-3.44 -75)"/><path d="M1348.77,280.56a12.39,12.39,0,0,1,.77,5.54c0-.65-.08-1.31-.16-2a17,17,0,0,0-.36-1.91c.15,1.81.3,3.61.45,5.31C1350.25,286,1349.88,282.29,1348.77,280.56Z" transform="translate(-3.44 -75)"/><path d="M1345.92,279a12.08,12.08,0,0,1,2,3.9,12.42,12.42,0,0,1,.55,4.76C1349.16,284.66,1347.91,280.56,1345.92,279Z" transform="translate(-3.44 -75)"/><path d="M1348.72,284c.2,1.15.25,2.36.36,3.52a10.79,10.79,0,0,0-1.2-6.8C1348.16,281.85,1348.52,282.92,1348.72,284Z" transform="translate(-3.44 -75)"/><path d="M1295.71,289.86l0,.21,3.5-1.72-.06-.23Z" transform="translate(-3.44 -75)"/><path d="M1350.42,289.6c.52-.19,1.49-2.3,1.5-3.19Z" transform="translate(-3.44 -75)"/><path d="M1350.45,285.44c-.24.94-.48,1.89-.71,2.83l.13.1.79-2.82Z" transform="translate(-3.44 -75)"/><path d="M1306,283.68a1.09,1.09,0,0,0-.08-.15h0A.76.76,0,0,1,1306,283.68Z" transform="translate(-3.44 -75)"/><path d="M1300.29,285.31a.93.93,0,0,1,0-.1l-.09.06Z" transform="translate(-3.44 -75)"/><path d="M1304.51,284l0,0,.29.24Z" transform="translate(-3.44 -75)"/><path d="M1299.41,284l.39.18.1-.09-.33-.2Z" transform="translate(-3.44 -75)"/><path d="M1305.3,284.34h.08a5.55,5.55,0,0,0-.24-.56l-.33.11Z" transform="translate(-3.44 -75)"/><path d="M1308.58,282.47l.25,0a5.74,5.74,0,0,0-.1-.65l-.28,0Z" transform="translate(-3.44 -75)"/><path d="M1308.77,283.29a1.17,1.17,0,0,0,.08-.53h-.2Z" transform="translate(-3.44 -75)"/><path d="M1308.4,281.66v0l.31.08-.06-.24-.25,0Z" transform="translate(-3.44 -75)"/><path d="M1307.16,282.09l.09.2.19,0-.1-.26Z" transform="translate(-3.44 -75)"/><path d="M1422.36,285.49l1.43,1c-.76-.79-1-1.84-2.14-2.22l.85.82-.06.06-.64-.33.44.58.13.1Z" transform="translate(-3.44 -75)"/><path d="M1423.5,285.57c0-.11,0-.22,0-.33l-.08-.07-.2.16.43.69.1-.57-.22-.19Z" transform="translate(-3.44 -75)"/><path d="M1419.29,282l1.55.86.07-.09-.15-.13,0-.06-.08,0,0,.09,0-.13-1.26-.6Z" transform="translate(-3.44 -75)"/><path d="M1423.66,286.19a.36.36,0,0,1,.07-.1l0-.07Z" transform="translate(-3.44 -75)"/><path d="M1416.8,281l2,1.09.2-.23-2-1.05Z" transform="translate(-3.44 -75)"/><path d="M1421.86,283.93h.14l0-.24-.16-.13Z" transform="translate(-3.44 -75)"/><path d="M1423.54,285.24l0,0,.06-.24-.06,0Z" transform="translate(-3.44 -75)"/><path d="M1424.42,285l0,0c-.17-.18-.33-.37-.5-.56l0,.24Z" transform="translate(-3.44 -75)"/><path d="M1421.37,282.79c0-.33,0-.66,0-1l-.11,0c0,.26,0,.59.09,1Z" transform="translate(-3.44 -75)"/><path d="M1418.44,285.77l.21,0-.18-.08Z" transform="translate(-3.44 -75)"/><path d="M1422.94,284.78a2.72,2.72,0,0,0,.11-.25l-.09-.08C1423,284.56,1423,284.66,1422.94,284.78Z" transform="translate(-3.44 -75)"/><path d="M1423.74,284.53l.07-.28c-.06-.06-.11-.13-.16-.19l0,.39Z" transform="translate(-3.44 -75)"/><path d="M1423,284l.22.15c0-.15.08-.31.11-.46l-.31-.35v.23C1423,283.69,1423,283.83,1423,284Z" transform="translate(-3.44 -75)"/><path d="M1421.85,283.15l.22.16.09-.84-.45-.42a5.85,5.85,0,0,1,.12.73A2.23,2.23,0,0,1,1421.85,283.15Z" transform="translate(-3.44 -75)"/><path d="M1422.76,283.82l.09-.66-.16-.17c0,.25,0,.52,0,.79Z" transform="translate(-3.44 -75)"/><path d="M1422.42,282.72l-.09-.08.07.41C1422.41,282.94,1422.42,282.83,1422.42,282.72Z" transform="translate(-3.44 -75)"/><path d="M1421.47,281.83l-.11-.1v.06Z" transform="translate(-3.44 -75)"/><path d="M1427.93,289.6c-.4-.42-.79-.85-1.19-1.28l-.06,0-.18-.29,0,0a1.62,1.62,0,0,1-.29.15l.47.3c0,.1-.06.2-.1.3l-2.37-1.46.12-.36,1.82,1.18.23-.23c-.11-.13-.23-.25-.34-.37-.26-.3-.5-.64-.76-1l-.1,0,.78,1.27c-.44-.44-.74-1-1.14-1.42l-.23-.24-.06.13s0-.1,0-.15l0,0,.12-.21,0,0-.83-.71c0,.09,0,.17,0,.26l.23.2c-.09.15-.19.3-.29.44.13.22.28.45.43.71l-.17-.14,0,.11-1.84-1.12.09-.28.09.07,0-.06-4.3-3.37-.14.13,3,2.52a4.89,4.89,0,0,1-1.48-1c-.87-.85-2-1.45-2.66-2.52-.27-.44-1-.63-1.46-.94a1.08,1.08,0,0,1,.46.08c.73.17,1.47.35,2.21.51.37.07.76.11,1.14.17,0,.11.09.22.14.33,0-.1,0-.21,0-.31a3,3,0,0,1,.45.11l.3.1a3.56,3.56,0,0,0,.13.39v-.34l.24.08c.13.38.26.75.4,1.13l.08,0a1.35,1.35,0,0,0,.07-1l.48.18a.51.51,0,0,0,0-.13c-1-.9-2-1.76-3-2.55-1.72-1.3-3.47-2.54-5.26-3.64s-3.71-2-5.57-3c-.23-.12-.46-.22-.7-.33l0,.12.68.57c-1-.31-2-.76-3-1a16.19,16.19,0,0,0-3-.54c-1-.09-2,0-2.94,0v.38h3.22v.14l-7.22.37V272l1.34-.31c-2.59,0-5.07.91-7.59,1.57a23,23,0,0,0-7.27,3.34,12.64,12.64,0,0,1,5.91-3.49.37.37,0,0,0-.27-.07c-2.69.49-5.18,2-7.7,3.26-.48.24-.93.59-1.41.85a8.46,8.46,0,0,0-2.21,1.68h0a9.82,9.82,0,0,0-1.62,2.27c-.42.81-.77,1.69-1.21,2.68a10.83,10.83,0,0,1,1.84-4.6v0l.12-.15a2.19,2.19,0,0,0-.37.25h0c-2,1.57-3.24,6.34-2.6,9.54a17.11,17.11,0,0,1,.84-6.18c-.15,2.28-.47,4.48.17,6.47.23-1.39.48-2.87.72-4.35l.11,0-.39,3.68a13.8,13.8,0,0,1,1.87-5.11c-.35,1.4-1.14,2.6-.91,4.46.18-.62.29-1,.43-1.45s.28-.79.42-1.18l.06,0-.39,1.94c.94-2.7,1.94-4.47,3.09-5.29-.82,1.37-1.86,2.46-2.29,4.19l.65-1.16c-.21.92-.37,1.64-.53,2.36l.15.07a13.64,13.64,0,0,1,.5-1.31,9.78,9.78,0,0,1,.68-1.18c.22-.34.47-.66.72-1-.36,1-.69,1.9-1,2.82,1.22-2.68.87-2.21,2.82-3.84-1.81,2.71-1.89,2.86-1.79,3.58l1.39-1.69.07.1-.27.76c.47-.54.85-1.18,1.27-1.75a6.53,6.53,0,0,1,1-1,9.63,9.63,0,0,1,.94-.63,6.27,6.27,0,0,0,.54-.5,19.51,19.51,0,0,0-2.66,4l2-2.11,0,.1c-.12.21-.25.42-.37.64.7-.6,1.31-1.34,2-2s1.35-1.24,2-1.86c0,.08.07.15.1.22l-3.19,3.06.11.23,2.07-1.69,0,.06-1.49,1.77c1.75-1.39,3.18-3.47,5.11-4.46l-3.75,3.78a.61.61,0,0,1,.07.14l4.37-3.72.06.16-3.44,3.51c.63-.31,1.13-.54,1.63-.8,1-.52,2-1.06,3-1.59a2.25,2.25,0,0,1,.31-.09l-.68.72,0,.1,4.72-3.25.64-.44.09.24-.38.29c-1.36,1-2.73,2-4.08,3,1.83-.76,3.58-1.84,5.38-2.72a16.74,16.74,0,0,1,2.77-1.12l.06.21-2.15,1.1-3.44,1.76v0l4.57-1.45h0l1-.32c0,.07,0,.14,0,.22l-.6.25h0l-2.48,1s0,.09,0,.14l3-1,4.31-1.47.06.3-3.69,1.42-.45.17,0,.16.77-.2,3.21-.83,0,.18-2.4,1h0l-.33.14,0,.14.55-.17h0l6.28-1.87c0,.08,0,.17,0,.25l-4.22,1.64c1.66-.13,3.22-1.11,4.91-.9l-2.54.93a.58.58,0,0,0,.51,0c1.22-.38,2.44-.8,3.67-1.17a2.75,2.75,0,0,1,.76,0,.57.57,0,0,0,0,.13l-3.61,1.3s0,.05,0,.08l3.93-.46c0,.06,0,.12,0,.18l-.69.25c1.09.17,2.16-.78,3.38.14l-2.77.64V282l3.34-.37v.2l-.56.15,1.89.29c0,.07,0,.14,0,.21l-2.27.3c0,.07,0,.14,0,.21.93.09,1.91-.36,2.81.45h-1.79c.72.18,1.45.16,2.16.3a17.19,17.19,0,0,1,2.08.64l0,.32H1416c1.48.64,2.93-.08,4.18,1l-1.37-.38a.36.36,0,0,0,0,.1l.73.48-.86-.09,6.13,2.43a2.21,2.21,0,0,1,0,.25l-4.44-1.58a6.33,6.33,0,0,0,1.89,1c1.42.38,2.75,1.22,4.24,1.21.63,0,1.25.62,1.88,1A1.42,1.42,0,0,0,1427.93,289.6Zm-35.13-14.55c0,.05,0,.1,0,.16l-3,1.71-.09-.22Zm-3.44.19a1.21,1.21,0,0,0,.05.18l-3.33,1.82c0-.06,0-.12,0-.18Zm-17.06,11.58a6.78,6.78,0,0,1,1.13-4.58,13.3,13.3,0,0,1,2.81-3.71h0s0,0,0,0l.15-.13-.1.12h0C1374.47,280.8,1372.55,283,1372.3,286.82Zm2.46-5,1.44-2.24a.76.76,0,0,0,.11.14l-1.45,2.22Zm1.17.07a7.07,7.07,0,0,1,2.64-2.85C1377.62,280,1376.79,280.93,1375.93,281.85Zm1.23-.72-.08-.17,1.62-1.56.08.16Zm1.21,3.27a12,12,0,0,1,3.4-3.87Zm.52-2.51a10.31,10.31,0,0,1,4-3.63Zm8.48.12a2,2,0,0,0-.1-.21l1.31-1.1a2.14,2.14,0,0,0,.1.22Zm2.26-2c0-.07-.05-.14-.07-.2l2.37-1.71a1.59,1.59,0,0,1,.07.2Zm7.92-7.75,0,.24-2.8.76,0-.2Zm-3.25,5.35a2.25,2.25,0,0,1,0-.22l4.23-2a2.82,2.82,0,0,1,.07.31Zm9.89-3.27-2.52.26A2.4,2.4,0,0,1,1404.19,274.37Zm-3,3.62,0-.29,3.77-1.28.06.35Zm5.46-3.54-1.36-.42,0-.21,1.37.39C1406.63,274.29,1406.61,274.37,1406.6,274.45Zm1.22,4.92c0-.07,0-.14,0-.21l1.6-.42,0,.26Zm5.76-1.88-3.24-3.08.09-.2,3.25,3.1Zm4.4,5.7-2.87-1.91a.86.86,0,0,0,.13-.14l2.88,1.9Z" transform="translate(-3.44 -75)"/><path d="M1369.89,284.44c-.09.7-.12,1.4-.17,2.1a13.38,13.38,0,0,1,.82-6c-1.19,1.86-1.58,5.89-.75,7.53.16-1.83.32-3.78.48-5.72A17.24,17.24,0,0,0,1369.89,284.44Z" transform="translate(-3.44 -75)"/><path d="M1371.45,283.05a13.1,13.1,0,0,1,2.14-4.2c-2.13,1.72-3.46,6.14-2.73,9.32A13.26,13.26,0,0,1,1371.45,283.05Z" transform="translate(-3.44 -75)"/><path d="M1370.21,288.11c.12-1.25.17-2.54.39-3.78s.59-2.36.9-3.53A11.67,11.67,0,0,0,1370.21,288.11Z" transform="translate(-3.44 -75)"/><path d="M1423.55,289l3.75,1.85,0-.23-3.74-1.87Z" transform="translate(-3.44 -75)"/><path d="M1368.77,290.31c-.52-1.12-1.1-2.35-1.6-3.44C1367.18,287.83,1368.22,290.11,1368.77,290.31Z" transform="translate(-3.44 -75)"/><path d="M1368.51,286l.85,3,.15-.11-.77-3.05Z" transform="translate(-3.44 -75)"/><path d="M1422.36,285.49l-.08-.05.07.08Z" transform="translate(-3.44 -75)"/><path d="M1423.57,285c0-.18,0-.35,0-.52l-.42-.32a2.74,2.74,0,0,1-.15.4Z" transform="translate(-3.44 -75)"/><path d="M1423,282.52l0,0-.09.62.15.16C1423,283.05,1423,282.79,1423,282.52Z" transform="translate(-3.44 -75)"/><path d="M1423,284.45c0-.17,0-.33,0-.47l-.22-.16,0,.31c0-.12,0-.23,0-.35l-.64-.47,0,.37Z" transform="translate(-3.44 -75)"/><path d="M1421.68,281.91l-.21-.08.24.22Z" transform="translate(-3.44 -75)"/><path d="M1421.34,282.77l-.49-.36-.07.17.2.1-.07.09.95.78c0-.14,0-.27,0-.4l-.48-.36v.35Z" transform="translate(-3.44 -75)"/><path d="M1423.79,286.47a1.8,1.8,0,0,0,.2.19l0,0Z" transform="translate(-3.44 -75)"/><path d="M1424.27,282.66h-.09l-.37,1.59.15.18Z" transform="translate(-3.44 -75)"/><path d="M1423.63,285l.2.17.09-.52-.18-.14Z" transform="translate(-3.44 -75)"/><path d="M1427.2,287.67l-.06-.18-.05.05Z" transform="translate(-3.44 -75)"/><path d="M1426.5,288.06l.24.26.09-.05-.16-.37-.19.13Z" transform="translate(-3.44 -75)"/><path d="M1421.36,281.45l-.16-.07q0,.11,0,.24l.13.11Z" transform="translate(-3.44 -75)"/><path d="M1426.57,287.7l.1.2q.19-.15.42-.36l-.16-.2Z" transform="translate(-3.44 -75)"/><path d="M1426.48,288h0l-.09-.16,0,0Z" transform="translate(-3.44 -75)"/><path d="M1426.06,288.2l.13,0-.06,0Z" transform="translate(-3.44 -75)"/><path d="M1426.18,286.45l-.1.16.07.15.13-.19Z" transform="translate(-3.44 -75)"/><path class="cls-20" d="M1343.77,308.57s-18,7.58-30.38,4.4-16.52,13.11-15.77,20c0,0,4.58-21,14.89-16.17S1343.77,308.57,1343.77,308.57Z" transform="translate(-3.44 -75)"/><path class="cls-20" d="M1423.9,313.1s-23.39,7-49.5-5.85C1374.4,307.25,1395.55,330.69,1423.9,313.1Z" transform="translate(-3.44 -75)"/><path class="cls-21" d="M1319.87,370.5s-16.13-30.61,26.67-47.43L1343.63,337S1316.3,331.63,1319.87,370.5Z" transform="translate(-3.44 -75)"/><path class="cls-21" d="M1395.47,346.78s16.81,15.09,11.55,32.59c0,0-4,2.32-3.21-2S1408.34,368.2,1395.47,346.78Z" transform="translate(-3.44 -75)"/><path class="cls-21" d="M1424.3,349.85s-8.79,53.79-28.83,69.63C1395.47,419.48,1423.53,368.5,1424.3,349.85Z" transform="translate(-3.44 -75)"/><path class="cls-21" d="M1294.32,348.55s9.6,16.15,12.74,40.87C1307.06,389.42,1306.5,356.6,1294.32,348.55Z" transform="translate(-3.44 -75)"/><path class="cls-21" d="M1324.67,407.78s30.9,25.71,56.67,8.66C1381.34,416.44,1352.92,437.22,1324.67,407.78Z" transform="translate(-3.44 -75)"/><path class="cls-21" d="M1313.36,389.29s13.17,34.2,15.85,34.21C1329.21,423.5,1310.36,396.63,1313.36,389.29Z" transform="translate(-3.44 -75)"/><path class="cls-22" d="M1397.67,371.31c1.12,4.45-8.46,13.78-14.69,19.92s-15.83,11.15-26.51,10.33c-10.7-.54-19.7-6.77-25-13.6s-10.21-19.61-8.54-23.88c3.77-8.64,20.7.35,35.86.9C1373.88,366.35,1395,362.27,1397.67,371.31Z" transform="translate(-3.44 -75)"/><path class="cls-23" d="M1375.21,390.71h-37c-.08,0-.68-3.39-.78-3.73-.64-2.11-1.12-4.66.28-6.57a11.51,11.51,0,0,1,4.26-3.31c4.47-2.25,9.88-3,15-3,6.4,0,22.18,2.18,19.88,10.61C1376.26,386.69,1375.73,388.69,1375.21,390.71Z" transform="translate(-3.44 -75)"/><path class="cls-24" d="M1371.05,390.71h-28.24l.6-7.82c.39-4.95,6.32-8.82,13.52-8.82h0c7.2,0,13.14,3.87,13.52,8.82Z" transform="translate(-3.44 -75)"/><path class="cls-22" d="M1360.47,378.4a3.79,3.79,0,0,0-.69-1.09,3.34,3.34,0,0,1-.92-1.43c-.14-.81.8-1.69.78-2.51h-4.31c0,.82,1.21,1.63,1.08,2.44a2.72,2.72,0,0,1-.92,1.28c-.26.27-.55.52-.77.8a1.51,1.51,0,0,0,.34,2.27,4.71,4.71,0,0,0,2.28.6,5.15,5.15,0,0,0,2.36-.43A1.38,1.38,0,0,0,1360.47,378.4Z" transform="translate(-3.44 -75)"/><path class="cls-25" d="M1355.73,377.43c-.8,1.4-.2,2.1,1.24,2.17a.34.34,0,1,1,0,.67h-.08c-1.24-.29-2.09-1-1.62-2.08A3.43,3.43,0,0,1,1355.73,377.43Z" transform="translate(-3.44 -75)"/><path class="cls-26" d="M1397.67,371.31c-2.66-9-23.79-5-38.89-6.33-15.16-.55-32.09-9.54-35.86-.9a10.85,10.85,0,0,0-.58,4.67c8.87-3.29,16.79,3.54,25.3,3.12,0,0,9.73,1.16,10.08-.35h0s.47.6,2,.79,6.57.18,6.59.18l.12,0c9.83,1.88,22.89-.46,31.41,2.31A9.81,9.81,0,0,0,1397.67,371.31Z" transform="translate(-3.44 -75)"/><path class="cls-26" d="M1393.55,373.61c1.38.33,2.8.72,4.29,1.21a9.81,9.81,0,0,0-.17-3.51c-2.66-9-23.79-5-38.89-6.33-15.16-.55-32.09-9.54-35.86-.9a10.56,10.56,0,0,0-.6,4.35l.45.16c1-.35,1.9-.64,2.79-.88,6-4.81,20.66,1.32,33,1.73C1370.08,370.52,1387.89,369,1393.55,373.61Z" transform="translate(-3.44 -75)"/><path class="cls-27" d="M1395.63,376.52c1.46-2-7.34-3.42-12.69-6.82q-.95-.61-2-1.2c-6.18-.86-14.15-.8-22.38-1.5-8.34-.35-16.32-1.44-22.58-1.34-.76.29-1.48.6-2.14.92-5.75,2.7-11.13.77-9.93,2.9,2,3.15,12.42,14.07,22,14.59,3.59.19,6.71-.33,10.64,0,3.29.16,7.24,1.1,10.31,1.33C1377.22,386.15,1393.06,379.57,1395.63,376.52Z" transform="translate(-3.44 -75)"/><path class="cls-26" d="M1395.78,376.28c1.16-2-7.69-3.31-12.84-6.58q-.95-.61-2-1.2c-6.18-.86-14.15-.8-22.38-1.5-8.34-.35-16.32-1.44-22.58-1.34-.76.29-1.48.6-2.14.92-5.6,2.63-11,.59-10,2.73,6.21-3.65,15.31,6.06,33.15,4.76C1374.4,377.07,1390.07,372,1395.78,376.28Z" transform="translate(-3.44 -75)"/><polygon class="cls-26" points="1353.51 304.16 1354.08 296.57 1352.79 296.57 1353.51 304.16"/><polygon class="cls-26" points="1341.87 296.57 1342.44 303.76 1340.4 296.57 1341.87 296.57"/><polygon class="cls-26" points="1364.75 296.57 1363.6 303.44 1365.97 296.57 1364.75 296.57"/><path class="cls-28" d="M1377.9,391.12a50.33,50.33,0,0,0-6-3.21c-6.08-2.84-8.53-2.76-14.74-1.54a23.23,23.23,0,0,0-14,.8c-2,.73-7.61,2.09-7.29,4.62.69,5.28,22.44,8.24,22.44,8.24S1379.32,394.11,1377.9,391.12Z" transform="translate(-3.44 -75)"/><path class="cls-27" d="M1356.85,393.16c-14.13-.55-28.73-10.73-32.67-14.91a98.89,98.89,0,0,0,7.26,12.16c5.31,6.83,14.31,13,25,13.59,10.68.82,20.38-4.22,26.51-10.32,2-2,9.37-7.81,10.63-9.89C1383.77,388.94,1371.56,394.45,1356.85,393.16Z" transform="translate(-3.44 -75)"/><path class="cls-26" d="M1385,388.11c-6.52,6.08-17,12.09-28.44,11.22-11.42-.58-20.88-7.86-26.58-14.71-1-1.17-4.94-7.61-5.7-8.8l-.08,0a97.42,97.42,0,0,0,7.26,12.16c5.31,6.83,14.31,13.06,25,13.6,10.68.82,20.39-4.22,26.51-10.33,2-2,10.54-6.15,11.8-8.2C1393.92,384,1386,387.15,1385,388.11Z" transform="translate(-3.44 -75)"/><polygon class="cls-26" points="1353.61 320.35 1352.92 325.87 1354.13 325.87 1353.61 320.35"/><polygon class="cls-26" points="1361.6 318.99 1363.52 324.42 1364.48 324.08 1361.6 318.99"/><polygon class="cls-26" points="1344.99 318.99 1342.75 323.19 1343.39 323.19 1344.99 318.99"/><polygon class="cls-26" points="1341.02 292.75 1343.26 297.17 1342.14 292.3 1341.02 292.75"/><polygon class="cls-26" points="1352.92 291.91 1353.44 296.05 1354.06 291.69 1352.92 291.91"/><polygon class="cls-26" points="1363.34 293.36 1362.28 297 1364.46 293.36 1363.34 293.36"/><path class="cls-29" d="M1358.6,368.68c15.1,1.38,36-.15,38.67,8.88a12,12,0,0,0,.4-6.25c-2.66-9-23.88-9.1-39-10.47-15.15-.54-32-5.4-35.77,3.24a12.05,12.05,0,0,0-.39,6.25C1326.31,361.71,1343.46,368.14,1358.6,368.68Z" transform="translate(-3.44 -75)"/><path class="cls-29" d="M1397.27,377.56c-1.09,3.67-10.49,9.93-14.29,13.67-6.12,6.11-16.35,9.84-27,9A32.55,32.55,0,0,1,1331.46,388c-3.29-4.19-8.3-13.86-8.93-17.63h0c-1.68,4.27,3.13,17,8.54,23.89s14.31,13,25,13.59c10.68.82,20.39-4.22,26.52-10.32s15.81-15.48,14.68-19.93Z" transform="translate(-3.44 -75)"/><path class="cls-30" d="M793.05,637.92s-8.12,5.75-10,6.94,0,12.7,0,12.7L777.76,660v91s132.79-7.66,105.08,20.6-172.9,7.18-171.47-4.31S747.19,750,747.19,750V660.43s0-4.79-2.39-5.75-1.91-14.85-1.91-14.85Z" transform="translate(-3.44 -75)"/><polygon class="cls-31" points="967.56 563 678.9 570 656.56 270 938.05 301.92 977.56 556 967.56 563"/><polygon points="972.86 552.29 701.14 557.95 666.61 279.62 934.57 309.55 972.86 552.29"/><polygon class="cls-30" points="656.22 269.56 693.48 568.07 678.08 569.86 640.1 275.66 656.22 269.56"/><ellipse class="cls-30" cx="799.4" cy="699.18" rx="91.47" ry="42.39"/><polygon class="cls-32" points="910.9 775.49 887.98 806.63 705.2 804.71 705.2 773.1 910.9 775.49"/><polygon class="cls-33" points="915.68 761.13 699.79 730.47 665.4 531.23 603.3 526.44 640.56 754.42 886.07 787.95 915.68 761.13"/><path class="cls-34" d="M914.94,847.86s5.79-11.51,4.18-11.73S889.51,863,889.51,863L644,829.42l-37.26-228H599l43,243.91,229.27,30.17s11.46,4.31,22.57-6.82S914.94,847.86,914.94,847.86Z" transform="translate(-3.44 -75)"/><polygon points="663.96 552.3 609.51 547.27 640.32 726.88 694.77 711.07 663.96 552.3"/><polygon class="cls-35" points="689.04 753.46 728.45 736.94 822.3 750.59 793.64 773.58 689.04 753.46"/><polygon class="cls-35" points="620.98 748.67 699.79 764 708.86 759.69 708.86 802.32 697.88 809.5 615.24 809.5 620.98 748.67"/><polygon class="cls-35" points="802.48 792.26 794.84 799.92 708.86 799.92 710.77 779.09 802.48 792.26"/><polygon class="cls-36" points="708.86 759.69 630.53 743.4 620.98 748.67 699.79 764 708.86 759.69"/><rect x="735.56" y="342" width="180" height="180"/><text class="cls-37" transform="translate(845.17 392.13)">01101111<tspan class="cls-38"><tspan x="0" y="8">00100000</tspan></tspan><tspan x="0" y="16">01110111</tspan><tspan x="0" y="60.8">01101111</tspan><tspan class="cls-39"><tspan x="0" y="66.4">01110010</tspan></tspan><tspan class="cls-40"><tspan x="0" y="72">01101100</tspan></tspan><tspan class="cls-41"><tspan x="0" y="77.6">01100100 </tspan></tspan></text><text class="cls-37" transform="translate(784.46 393.13)">01001000 01100101<tspan x="0" y="20.67" xml:space="preserve">01101100   01101100</tspan></text><path class="cls-2" d="M847.09,549.27V524.42A18.39,18.39,0,0,1,865.36,508H870v-6.9h-4.64a17.86,17.86,0,0,0-2.22.15h0a25,25,0,0,0-18.84,11.21,23.16,23.16,0,0,0-10.07-10.29c-.08-.1,0-.21.14-.48q1.95-3.37,3.89-6.76a1,1,0,0,0,.14-.57.82.82,0,0,0-.66-.78.88.88,0,0,0-1,.46l-4.06,7c-.1.17-.14.23-.22.22a33.72,33.72,0,0,0-8-2.36,36.6,36.6,0,0,0-7-.67,34.44,34.44,0,0,0-15.07,2.64l-2.33-4c-.55-.95-1.09-1.9-1.65-2.85a.87.87,0,0,0-1.28-.32.92.92,0,0,0-.19,1.31l3.77,6.52.09.15c-12.26,6.58-12.7,20.29-12.7,20.29v34.18h26v0h3.59V545.55H807c0,.15,0,.25,0,.35.16,1.13.32,2.25.47,3.37H796.42V522h42.33v27.28h-9.44l.51-3.72H819.18v10.57h1.05a.07.07,0,0,0,0,0H870.1v-6.9Zm-45.28-34.49a2.06,2.06,0,0,1-2.09-2.09,2.1,2.1,0,0,1,2.08-2.09,2.12,2.12,0,0,1,2.1,2.11A2.08,2.08,0,0,1,801.81,514.78Zm31.49,0a2,2,0,0,1-2.07-2.1,2.11,2.11,0,0,1,2.09-2.08,2.14,2.14,0,0,1,2.09,2.1A2.1,2.1,0,0,1,833.3,514.78Z" transform="translate(-3.44 -75)"/><path class="cls-2" d="M792.57,456.46a3.7,3.7,0,0,0,1.86-3,3.41,3.41,0,0,0-3.42-3.39H788.2v9.85h.94v-3.08h1.56a2.48,2.48,0,0,1,2.49,2.46v.62h.93v-.62a4,4,0,0,0-.42-1.63A4.17,4.17,0,0,0,792.57,456.46Zm-1.56-.55h-1.87V451H791a2.49,2.49,0,0,1,2.49,2.47,2.48,2.48,0,0,1-2.49,2.46Z" transform="translate(-3.44 -75)"/><path class="cls-2" d="M800,450.06a3.72,3.72,0,0,0-3.74,3.69v2.47a3.74,3.74,0,0,0,7.48,0v-2.47A3.72,3.72,0,0,0,800,450.06Zm2.8,6.16A2.78,2.78,0,0,1,800,459a2.83,2.83,0,0,1-2-.81,2.74,2.74,0,0,1-.82-2v-2.47a2.81,2.81,0,0,1,5.61,0Z" transform="translate(-3.44 -75)"/><path class="cls-2" d="M812.19,450.06l-1.41,1.85-1.4,1.84-1.4-1.84-1.4-1.85h-.94v9.85h.94V451.6l1,1.35,1,1.36.38.49.37.49.38-.49.37-.49,1-1.36,1-1.35v8.31h.93v-9.85Z" transform="translate(-3.44 -75)"/><path class="cls-2" d="M819.89,455l-1.32-4.93h-.93L816.31,455,815,459.91h1l.37-1.38.37-1.39h2.84l.38,1.39.37,1.38h.93ZM817,456.22l.58-2.15.57-2.15v0l.58,2.15.58,2.15Z" transform="translate(-3.44 -75)"/><path class="cls-2" d="M828.38,450.06V458l-2.18-4-2.18-4h-.93v9.85H824V452l2.18,4,2.18,4h.94v-9.85Z" transform="translate(-3.44 -75)"/><path class="cls-2" d="M836.36,450.06l-1,2-1,2-1-2-1-2h-1.06l1.3,2.46,1.29,2.47,0,.05,0,.06v4.81h.94V455.1l0-.06,0-.05,1.29-2.47,1.3-2.46Z" transform="translate(-3.44 -75)"/><path class="cls-2" d="M794.74,472l-1.4,1.85-1.4,1.84-1.4-1.84-1.4-1.85h-.94v9.85h.94v-8.31l1,1.35,1,1.36.38.49.37.49.37-.49.38-.49,1-1.36,1-1.35v8.31h.94V472Z" transform="translate(-3.44 -75)"/><path class="cls-2" d="M802.32,472a3.72,3.72,0,0,0-3.74,3.69v2.47a3.74,3.74,0,0,0,7.48,0v-2.47A3.72,3.72,0,0,0,802.32,472Zm2.8,6.16a2.81,2.81,0,0,1-4.78,2,2.74,2.74,0,0,1-.82-2v-2.47a2.8,2.8,0,0,1,5.6,0Z" transform="translate(-3.44 -75)"/><path class="cls-2" d="M814.26,472v6.77a2.18,2.18,0,0,1-4.36,0V472H809v6.77a3.12,3.12,0,0,0,6.23,0V472Z" transform="translate(-3.44 -75)"/><path class="cls-2" d="M823.39,472v7.92l-2.18-4L819,472h-.93v9.85H819v-7.92l2.18,4,2.18,4h.94V472Z" transform="translate(-3.44 -75)"/><path class="cls-2" d="M827.23,472v9.85h.93V472Z" transform="translate(-3.44 -75)"/><path class="cls-2" d="M837.44,475.58a.65.65,0,0,0,0-.19,3.39,3.39,0,0,0-1-2.42,3.45,3.45,0,0,0-2.4-1h-2.81v9.85h.94v-3.08h1.56a2.48,2.48,0,0,1,2.49,2.46v.62h.93v-.62a3.35,3.35,0,0,0-1.55-2.83A3.7,3.7,0,0,0,837.44,475.58Zm-3.4,2.27h-1.87v-4.93H834a2.48,2.48,0,0,1,2.49,2.46,2.84,2.84,0,0,1-.73,1.75A2.91,2.91,0,0,1,834,477.85Z" transform="translate(-3.44 -75)"/><path class="cls-3" d="M789.62,559.14h-.45l-1.27,4.8h.46l.36-1.35h1.37l.36,1.35h.45Zm-.78,3,.55-2v0l.55,2.07Z" transform="translate(-3.44 -75)"/><path class="cls-3" d="M798.78,559.14V563l-1-1.93-1.05-1.93h-.45v4.8h.45v-3.86l1.05,1.93,1,1.93h.45v-4.8Z" transform="translate(-3.44 -75)"/><path class="cls-3" d="M804,559.59v-.45h-3v4.8h3v-.45h-2.55v-2.1h1.35v-.45h-1.35v-1.35Z" transform="translate(-3.44 -75)"/><path class="cls-3" d="M809.58,559.14l0,.22,0,.23-.26,1.8-.25,1.79-.34-.63-.34-.63-.2-.36-.2-.37-.19.37-.2.36-.34.63-.34.63-.25-1.79-.26-1.8,0-.23,0-.22h-.46l.34,2.4.34,2.4H807l.49-.9.48-.9.49.9.49.9h.45l.34-2.4.33-2.4Z" transform="translate(-3.44 -75)"/><path class="cls-3" d="M816.13,559.14h-.6v4.8h.6a2.4,2.4,0,1,0,0-4.8Zm1.8,3.16a2,2,0,0,1-.71.86,2.32,2.32,0,0,1-1.09.33H816v-3.9h.15a2.58,2.58,0,0,1,.39,0,2.26,2.26,0,0,1,.7.29,2.66,2.66,0,0,1,.53.53,2.11,2.11,0,0,1,.18.33,2.26,2.26,0,0,1,.11.37,2,2,0,0,1-.11,1.15Z" transform="translate(-3.44 -75)"/><path class="cls-3" d="M820.33,559.14v4.8h.45v-4.8Z" transform="translate(-3.44 -75)"/><path class="cls-3" d="M824.68,561.69v.45h1.05a1.35,1.35,0,0,1-2.7,0v-1.2a1.34,1.34,0,0,1,1.35-1.35,1.56,1.56,0,0,1,.9.34l.15-.17.15-.16a2,2,0,0,0-1.2-.46,1.8,1.8,0,0,0-1.8,1.8v1.2a1.8,1.8,0,0,0,3.6,0v-.45Z" transform="translate(-3.44 -75)"/><path class="cls-3" d="M828,559.14v4.8h.45v-4.8Z" transform="translate(-3.44 -75)"/><path class="cls-3" d="M830.23,559.14v.45h1.28v4.35H832v-4.35h1.27v-.45Z" transform="translate(-3.44 -75)"/><path class="cls-3" d="M836,559.14h-.45l-1.28,4.8h.47l.36-1.35h1.37l.35,1.35h.45Zm-.78,3,.54-2V560l0,.06.55,2.07Z" transform="translate(-3.44 -75)"/><path class="cls-3" d="M839.56,563.49v-4.35h-.45v4.8h2.4v-.45Z" transform="translate(-3.44 -75)"/><path class="cls-3" d="M850.5,559.14l0,.22,0,.23-.25,1.8-.26,1.79-.34-.63-.34-.63-.19-.36-.2-.37-.2.37-.2.36-.34.63-.34.63-.25-1.79-.25-1.8,0-.23,0-.22h-.45l.34,2.4.34,2.4h.45l.48-.9.49-.9.48.9.49.9h.45l.34-2.4.34-2.4Z" transform="translate(-3.44 -75)"/><path class="cls-3" d="M854.5,559.14a1.79,1.79,0,0,0-1.8,1.8v1.2a1.8,1.8,0,0,0,3.6,0v-1.2A1.8,1.8,0,0,0,854.5,559.14Zm1.35,3a1.35,1.35,0,1,1-2.7,0v-1.2a1.35,1.35,0,0,1,2.7,0Z" transform="translate(-3.44 -75)"/><path class="cls-3" d="M860.2,562.26a1.81,1.81,0,0,0,.9-1.47,1.65,1.65,0,0,0-1.65-1.65H858.1v4.8h.45v-1.5h.75a1.2,1.2,0,0,1,1.2,1.2v.3H861v-.3a1.66,1.66,0,0,0-.75-1.38Zm-.75-.27h-.9v-2.4h.9a1.2,1.2,0,0,1,1.2,1.2,1.43,1.43,0,0,1-.35.85A1.4,1.4,0,0,1,859.45,562Z" transform="translate(-3.44 -75)"/><path class="cls-3" d="M863.35,563.49v-4.35h-.45v4.8h2.4v-.45Z" transform="translate(-3.44 -75)"/><path class="cls-3" d="M867.7,559.14h-.6v4.8h.6a2.4,2.4,0,1,0,0-4.8Zm1.8,3.16a2,2,0,0,1-.71.86,2.32,2.32,0,0,1-1.09.33h-.15v-3.9h.15a2.58,2.58,0,0,1,.39,0,2.26,2.26,0,0,1,.7.29,2.66,2.66,0,0,1,.53.53,2.11,2.11,0,0,1,.18.33,2.26,2.26,0,0,1,.11.37,2,2,0,0,1-.11,1.15Z" transform="translate(-3.44 -75)"/><path class="cls-2" d="M862.57,487c4-.44,8,3,7.49,6.55C866.52,494,862.81,490.76,862.57,487Z" transform="translate(-3.44 -75)"/><path class="cls-2" d="M804.87,529.46c.65,4.67,1.31,9.34,1.94,14,.07.47.23.65.73.65,3.31,0,6.62,0,9.93,0h.23V529H804.87A3.66,3.66,0,0,0,804.87,529.46Z" transform="translate(-3.44 -75)"/><path class="cls-2" d="M830,543.48c.4-3,.83-6,1.25-9L832,529H819.18v15.08c3.41,0,6.82,0,10.23,0C829.88,544.1,829.94,543.87,830,543.48Z" transform="translate(-3.44 -75)"/><path class="cls-2" d="M846.89,469.44V457H870v-6.93H838.75v27.28s-.34,8.08,10,17.73l.17.14a25.54,25.54,0,0,0,4.17,3,29.92,29.92,0,0,0,12.23,3.15H870v-6.93h-4.65A18.46,18.46,0,0,1,846.89,476v-6.58Z" transform="translate(-3.44 -75)"/><text class="cls-42" transform="matrix(0.48, -0.07, 0.11, 0.99, 652, 593.01)">01101111<tspan class="cls-43"><tspan x="0" y="6.79">00100000</tspan></tspan><tspan x="0" y="13.59">01110111</tspan><tspan x="0" y="51.63">01101111</tspan><tspan class="cls-44"><tspan x="0" y="56.39">01110010</tspan></tspan><tspan class="cls-45"><tspan x="0" y="61.14">01101100</tspan></tspan><tspan class="cls-46"><tspan x="0" y="65.9">01100100 </tspan></tspan></text><text class="cls-42" transform="matrix(0.48, -0.07, 0.11, 0.99, 627.53, 597.41)">01001000 01100101<tspan x="0" y="17.55" xml:space="preserve">01101100   01101100</tspan></text><path class="cls-2" d="M671.67,736.1l-3.94.57-5.36.78,0-.28-2.26-20.7c-.44-7.84,2-14.37,5.89-14.92h0l1.86-.26-.63-5.83h0l-1.85.27h0a3.5,3.5,0,0,0-.87.25,9,9,0,0,0-3.77,3.12,24.71,24.71,0,0,0-2.84,7.45,19.55,19.55,0,0,0-5-8.1c-.05-.08,0-.17,0-.41q.48-3,.95-5.93a1.6,1.6,0,0,0,0-.49c0-.33-.18-.57-.34-.62s-.31.1-.36.45q-.51,3.09-1,6.18c0,.15,0,.2-.07.2a9,9,0,0,0-3.44-1.53,7.25,7.25,0,0,0-2.9-.15,8.32,8.32,0,0,0-5.85,3.11c-.44-1.09-.88-2.18-1.31-3.27l-.93-2.31c-.16-.39-.4-.47-.55-.19a1.38,1.38,0,0,0,0,1.12l2.13,5.28a.61.61,0,0,0,0,.12c-4.36,6.27-3.28,17.88-3.28,17.88l.2,1.79.44,4.06.09.86,0,.24,2,18.64.35,3.26,10.53-1.52a.09.09,0,0,0,0-.05l1.46-.21-1-8.92-4.32.63c0,.12,0,.21,0,.29.16.94.33,1.88.5,2.82l-4.49.65-2.5-23,3.89-.57,3-.43,3.35-.49,2.91-.42,4-.57.78,7.24L658.45,733l.06.51,0,.24.46,4.22-3.82.55c0-1-.09-2.11-.13-3.17l-4.31.62,1,8.92.43-.06v.05l8.38-1.21,7.61-1.1,4.19-.61ZM640.88,711c-.47.07-.93-.65-1-1.64s.19-1.81.65-1.88.93.68,1,1.65S641.35,710.91,640.88,711Zm12.74-1.84c-.47.06-.92-.66-1-1.66s.19-1.81.66-1.87.93.69,1,1.65S654.09,709.07,653.62,709.14Z" transform="translate(-3.44 -75)"/><path class="cls-2" d="M632.68,664.59h0a7,7,0,0,0-.32-1.35,3.5,3.5,0,0,0-.57-.94,4.52,4.52,0,0,0,.48-2.66c-.17-1.57-.94-2.77-1.7-2.65l-1.13.16.9,8.32.38-.06-.28-2.6.63-.09h.07c.53,0,1,.84,1.16,1.94l.06.52.37,0Zm-1.57-2.68-.76.11-.45-4.16.75-.11h0c.55-.08,1.1.79,1.23,1.94a4.07,4.07,0,0,1-.14,1.51C631.63,661.56,631.34,661.88,631.11,661.91Z" transform="translate(-3.44 -75)"/><path class="cls-2" d="M636.3,661.42l-.23-2.07c-.18-1.73-1-3-1.85-2.9s-1.36,1.61-1.17,3.33l.23,2.08c.18,1.72,1,3,1.85,2.9S636.49,663.15,636.3,661.42ZM635,664c-.62.09-1.24-.89-1.38-2.18h0l-.22-2.08c-.14-1.3.25-2.42.88-2.51s1.25.89,1.39,2.18l.22,2.08C636.06,662.77,635.67,663.9,635,664Z" transform="translate(-3.44 -75)"/><path class="cls-2" d="M640.28,662.67l-.15-1.32-.31-2.84-.31-2.83-.18,0-.19,0-.4,1.64-.4,1.64-.73-1.48-.74-1.48-.19,0-.19,0,.45,4.16.46,4.15.18,0,.19,0-.14-1.32-.14-1.33-.24-2.18-.24-2.19.54,1.09.54,1.08.2.39.19.4.11-.44.11-.44.29-1.2.29-1.21.38,3.51.38,3.51.19,0,.19,0Z" transform="translate(-3.44 -75)"/><path class="cls-2" d="M642.71,659.44l-1-4.08-.38.06-.08,4.23-.09,4.24.4-.06,0-1.19,0-1.19,1.15-.17.28,1.15.28,1.15.37-.06Zm-1.08,1.21,0-1.84,0-1.85v0l.43,1.78.43,1.78Z" transform="translate(-3.44 -75)"/><path class="cls-2" d="M646.52,658.89l-.45-4.16-.19,0-.19,0,.36,3.34.37,3.34-1.25-3.21L643.92,655l-.1,0-.14,0-.13,0,.45,4.15.45,4.16.19,0,.19,0-.37-3.34-.36-3.35,1.25,3.22,1.24,3.21h.11l.13,0,.14,0Z" transform="translate(-3.44 -75)"/><path class="cls-2" d="M648.73,658.67l0-.1.29-2.16.3-2.15-.21,0-.21,0-.24,1.72-.24,1.71-.6-1.59-.59-1.6-.22,0-.21,0,.75,2,.75,2,0,0v0l.23,2,.22,2,.19,0,.18,0-.22-2Z" transform="translate(-3.44 -75)"/><path class="cls-2" d="M635.24,682.21l-.15-1.32-.31-2.83-.31-2.84-.18,0-.19,0-.4,1.64-.4,1.64-.73-1.48-.74-1.47-.19,0-.19,0,.45,4.16.46,4.16.18,0,.19,0-.14-1.32-.14-1.33-.24-2.18-.24-2.18.54,1.08.54,1.08.2.4.19.39.22-.88.29-1.2.29-1.2.38,3.51.38,3.5.19,0,.19,0Z" transform="translate(-3.44 -75)"/><path class="cls-2" d="M639.24,679.81l-.23-2.08c-.18-1.72-1-3-1.85-2.9s-1.36,1.62-1.17,3.34l.22,2.08c.19,1.72,1,3,1.86,2.9S639.43,681.53,639.24,679.81ZM638,682.37h-.08c-.59,0-1.18-1-1.31-2.18l-.22-2.08h0c-.14-1.29.25-2.41.88-2.5s1.24.88,1.38,2.17h0l.23,2.08C639,681.16,638.61,682.28,638,682.37Z" transform="translate(-3.44 -75)"/><path class="cls-2" d="M643,679.8l-.62-5.72-.38,0,.62,5.72c.11,1-.2,1.88-.68,1.95h-.06c-.47,0-.91-.73-1-1.69l-.62-5.72-.38.06.62,5.71c.16,1.44.85,2.52,1.54,2.42S643.15,681.23,643,679.8Z" transform="translate(-3.44 -75)"/><path class="cls-2" d="M646.51,677.7l-.45-4.15-.19,0-.19,0,.37,3.34.36,3.35-1.24-3.22-1.25-3.21h-.11l-.13,0-.14,0,.45,4.16.46,4.16.19,0,.18,0-.36-3.34-.36-3.34,1.24,3.21,1.25,3.22.1,0,.14,0,.14,0Z" transform="translate(-3.44 -75)"/><path class="cls-2" d="M648.07,677.48l-.46-4.16-.18,0-.19,0,.45,4.15.45,4.16.19,0,.19,0Z" transform="translate(-3.44 -75)"/><path class="cls-2" d="M652.1,680.59a6.44,6.44,0,0,0-.33-1.36,3.25,3.25,0,0,0-.56-.94,4.5,4.5,0,0,0,.48-2.65c-.18-1.58-.94-2.77-1.7-2.66l-1.13.16.9,8.32.38-.06-.28-2.6.63-.09c.55-.08,1.1.79,1.23,1.93h0l.06.52.37-.06Zm-1.57-2.68-.76.11-.45-4.15.75-.11h0c.55-.08,1.1.78,1.23,1.93a4.07,4.07,0,0,1-.14,1.51C651.05,677.56,650.76,677.88,650.53,677.91Z" transform="translate(-3.44 -75)"/><path class="cls-3" d="M640,749.14l-.18,0-.08,4.13.19,0,0-1.16.55-.08.27,1.12.18,0Zm0,2.58,0-1.75v0l.42,1.72Z" transform="translate(-3.44 -75)"/><path class="cls-3" d="M644.14,750.61l-.23-2-.09,0h-.09l.18,1.63.18,1.63-.6-1.57-.61-1.57h-.18l.22,2,.22,2h.09l.09,0-.17-1.62-.18-1.63.6,1.56.6,1.57h.19Z" transform="translate(-3.44 -75)"/><path class="cls-3" d="M646.28,752.16l0-.19-.52.08-.52.07-.09-.88-.1-.89.27,0,.28,0,0-.19,0-.19-.28,0-.27,0-.12-1.14.51-.07.52-.08,0-.38-.52.08-.51.07h-.07l-.12,0,.22,2,.22,2h.19l.51-.07.52-.08Z" transform="translate(-3.44 -75)"/><path class="cls-3" d="M648.37,750l-.09-2h-.09l-.09,0,0,.38.06,1.53.06,1.53-.19-.51-.2-.51-.11-.3-.12-.29,0,.32-.05.32-.16,1.1-.27-1.5-.26-1.5,0-.19,0-.19h-.09l-.1,0,.36,2,.36,2h.09l.09,0,.12-.79.11-.78.28.73.28.73h.09l.09,0Z" transform="translate(-3.44 -75)"/><path class="cls-3" d="M651.94,749.48c-.12-1.12-.66-2-1.19-1.89l-.24,0,.44,4,.24,0C651.73,751.57,652.06,750.6,651.94,749.48Zm-.17.67a2.18,2.18,0,0,1,0,.29,1.93,1.93,0,0,1-.16.48.71.71,0,0,1-.41.35h-.06l-.36-3.29H651a.85.85,0,0,1,.31.21,1.68,1.68,0,0,1,.26.42,1.56,1.56,0,0,1,.11.26c0,.08.06.22.08.31s0,.23,0,.32,0,.24,0,.33S651.77,750.07,651.77,750.15Z" transform="translate(-3.44 -75)"/><path class="cls-3" d="M652.85,749.35l-.22-2h-.09l-.09,0,.22,2,.22,2H653l.09,0Z" transform="translate(-3.44 -75)"/><path class="cls-3" d="M655.09,749.54l0-.38-.61.09,0,.38.43-.07h0c.07.62-.12,1.17-.42,1.21h0c-.3,0-.57-.46-.63-1.06l-.11-1c-.07-.63.12-1.18.42-1.22a.49.49,0,0,1,.39.24l.05-.15,0-.15a.66.66,0,0,0-.52-.32c-.41.06-.66.79-.57,1.62l.11,1c.09.84.5,1.47.9,1.41S655.18,750.38,655.09,749.54Z" transform="translate(-3.44 -75)"/><path class="cls-3" d="M656,748.9l-.23-2-.09,0h-.09l.22,2,.22,2h.19Z" transform="translate(-3.44 -75)"/><path class="cls-3" d="M657.19,747.05l.26,0,.26,0,0-.38-.26,0-.26,0-.18,0-.26,0-.26,0,0,.19,0,.19.52-.08.2,1.84.2,1.84.09,0h.09l-.2-1.84Z" transform="translate(-3.44 -75)"/><path class="cls-3" d="M658.8,746.43l-.18,0-.08,4.13.19,0,0-1.16.56-.08.27,1.12.18,0Zm0,2.58,0-1.76v-.07l0,.05.41,1.71Z" transform="translate(-3.44 -75)"/><path class="cls-3" d="M661.42,749.78l-.4.06-.39,0-.2-1.83-.2-1.84h-.09l-.09,0,.2,1.83.19,1.84,0,.19,0,.19h.09l.09,0,.39,0,.4-.06Z" transform="translate(-3.44 -75)"/><path class="cls-3" d="M664.92,747.6l-.08-2.05-.1,0h-.09V746l.06,1.54.06,1.53-.19-.51-.2-.51-.11-.3-.11-.3-.1.64-.16,1.1-.26-1.5-.27-1.5,0-.19,0-.19-.09,0h-.09l.35,2,.36,2,.18,0,.12-.79.11-.79.28.73.28.73H665Z" transform="translate(-3.44 -75)"/><path class="cls-3" d="M667.27,747.77l-.11-1c-.09-.84-.49-1.47-.89-1.41s-.66.78-.56,1.62l.11,1c.09.84.49,1.48.89,1.42S667.36,748.61,667.27,747.77Zm-.6,1.25h0c-.28,0-.56-.46-.63-1.06l-.11-1c-.07-.63.12-1.17.42-1.22s.6.44.67,1.07l.11,1C667.16,748.43,667,749,666.67,749Z" transform="translate(-3.44 -75)"/><path class="cls-3" d="M669.29,748.77a3.2,3.2,0,0,0-.15-.66,1.81,1.81,0,0,0-.28-.46,2.22,2.22,0,0,0,.23-1.3c-.08-.77-.45-1.35-.82-1.29l-.55.08.45,4.05.18,0-.14-1.26.3,0h0c.25,0,.5.4.56.94l0,.26.18,0Zm-.76-1.31-.36.06-.22-2,.36,0c.27,0,.54.38.6.94a2.2,2.2,0,0,1-.07.74C668.78,747.29,668.64,747.45,668.53,747.46Z" transform="translate(-3.44 -75)"/><path class="cls-3" d="M671.06,748.58l0-.19-.4.05-.39.06-.2-1.84-.2-1.83h-.18l.2,1.84.2,1.84,0,.19,0,.19.09,0h.09l.39-.06.4-.05Z" transform="translate(-3.44 -75)"/><path class="cls-3" d="M672.8,746.46c-.12-1.12-.66-2-1.19-1.89l-.24,0,.44,4,.24,0C672.59,748.55,672.92,747.58,672.8,746.46Zm-.17.67a2.18,2.18,0,0,1,0,.29,1.93,1.93,0,0,1-.16.48.71.71,0,0,1-.41.35H672l-.36-3.29h.22a.85.85,0,0,1,.31.21,1.88,1.88,0,0,1,.26.42,1.56,1.56,0,0,1,.11.26c0,.08.06.22.08.31s0,.23,0,.33,0,.23,0,.33S672.63,747.05,672.63,747.13Z" transform="translate(-3.44 -75)"/><path class="cls-2" d="M662.91,684c1.59-.62,3.5,2.09,3.63,5.08C665.15,689.62,663.35,687.13,662.91,684Z" transform="translate(-3.44 -75)"/><path class="cls-2" d="M643.47,723.2c.69,3.9,1.39,7.8,2.07,11.7.07.4.15.54.35.51,1.34-.21,2.68-.4,4-.59l.09,0-1.38-12.74-5.19.75A3.85,3.85,0,0,0,643.47,723.2Z" transform="translate(-3.44 -75)"/><path class="cls-2" d="M654.92,733.57c-.11-2.56-.21-5.11-.32-7.66-.06-1.54-.13-3.09-.19-4.69l-5.2.75,1.39,12.73,4.14-.58C654.93,734.09,654.93,733.89,654.92,733.57Z" transform="translate(-3.44 -75)"/><path class="cls-2" d="M655,670.07l-.42-3.89,0-.36-.68-6.27,9.34-1.35-.63-5.85-12.06,1.75h-.11l-.47.07.19,1.77v0l.44,4.07.09.84,0,.25,1.75,16.08a33.79,33.79,0,0,0,5.67,14.38l.08.11a15.17,15.17,0,0,0,2,2.32,7.61,7.61,0,0,0,5.24,2l1.88-.27-.63-5.86-1.89.28c-4.11.59-8.22-5.9-9.15-14.5l-.55-5.08Z" transform="translate(-3.44 -75)"/><path d="M1592.14,966s-23.64-29.47-68.06-14.39c0,0-57.12-1.07-77.82-14S1355.71,892,1326,897.75V906s-21.39,3-40,3.54a129.3,129.3,0,0,0-51.48,12.5C1168,953.5,1014.76,1031.62,1020,1081l104-1H1556.8s33.43-1.92,35.34-83.82l6.69-15.6S1593.1,979.46,1592.14,966Z" transform="translate(-3.44 -75)"/><path class="cls-47" d="M999,743.29q-1.94.33-3.78.6c-27.13,3.93-40.71-2.49-46.36-6.62a16.42,16.42,0,0,1-3.36-3.08c-6.21-1-3.61,8.14-3.61,8.14s11.73,23,3.61,35,0,11,0,11a19.43,19.43,0,0,0,6-.89,30.28,30.28,0,0,0,10.25-5.34c8.6-6.7,37.26-4.78,37.26-4.78a11.51,11.51,0,0,0,1.5-2C1006.94,764.75,999,743.29,999,743.29ZM986.49,772H976V750.45h10.51Z" transform="translate(-3.44 -75)"/><ellipse class="cls-48" cx="1037.16" cy="677.39" rx="46.19" ry="46.32"/><ellipse class="cls-49" cx="1037.16" cy="677.39" rx="34.87" ry="34.96"/><ellipse class="cls-48" cx="1104.71" cy="677.39" rx="46.19" ry="46.32"/><path class="cls-50" d="M1085.85,761.74v0a37.57,37.57,0,0,1-.41-20.5h0a25.3,25.3,0,0,1,2.2-5.73s-1.34.31-3.74.75c-1.33.25-3,.54-4.91.84s-4.15.62-6.6.93h0c-2.57.31-5.39.61-8.41.86-14.13,1.17-32.56,1.21-49.41-3.38q-1.93-.53-3.9-1c-3.78-1-7.63-1.81-11.48-2.58-29.27-5.86-58.61-6.65-61-5-2.87,1.92-1.91,12.67-1.91,12.67s9.07,7,8.59,10.8-6.2-1.43-5.25,12,2.87,13.41,5.73,13.41-16.24,15.8-1.43,20.11c8.5,2.48,39.22-4.52,63.82-10.94,4.74-1.23,9.25-2.44,13.33-3.56,11.65-3.19,19.81-5.61,19.81-5.61s16.85.38,25.17-4.36a11.22,11.22,0,0,0,2.53-1.87,6,6,0,0,1,3.38-1.69,15.46,15.46,0,0,1,7.7,1.13,36.69,36.69,0,0,1,3.55,1.51,66.28,66.28,0,0,1,10,6.17A50.71,50.71,0,0,1,1085.85,761.74Zm-80.24,15.17a17.51,17.51,0,0,1-3,1.77c-11.27,5.41-41.44,12-51.11,8.74a4.63,4.63,0,0,1-2.69-1.88s13.58-17.18,0-45a3.33,3.33,0,0,1,.06-3.24c1.91-3.09,10.92-6.1,47.28,2.62,3.42.82,7.07,1.74,11,2.78l.9.24s3.08,14.93,1.52,25.35C1009,772.05,1007.78,775.25,1005.61,776.91Zm48.72-8.14H1029c-8.6,0-8.12-2.87-9.08-13.89s5.73-12,5.73-12h28.66Z" transform="translate(-3.44 -75)"/><ellipse class="cls-51" cx="1106.89" cy="677.39" rx="34.87" ry="34.96"/><path class="cls-52" d="M1171.44,1078.36c64.48,8.59,74.89-99,79.67-226.81s-99-113.35-99-113.35" transform="translate(-3.44 -75)"/><path class="cls-53" d="M1898.79,540.69s-30.09.48-40.6-10.54c0,0-17.19-9.1-89.79,153.27s-82.16,256.72-82.16,256.72-6.69,78.07,27.23,139.38h17.67s-39.65-56.52-30.09-140.82,80.72-274,131.35-352.51c0,0,12.9-35.44,36.78-36.88S1898.79,540.69,1898.79,540.69Z" transform="translate(-3.44 -75)"/><path d="M1722.06,1014.86l29.45-124.12,28.83,22.58v35l-16.72,76.16-10.51,36.4-19.58,9.58s-22.93-26.35-21-29.7-4.32-34-4.32-34Z" transform="translate(-3.44 -75)"/><path class="cls-54" d="M1851.35,557.34l1.34-2.74c-1.45,1.84-2.89,3.69-4.32,5.59h0q-5.58,7.39-11,15.34h0c-76.84,113-126.59,304.32-126.59,304.32-37.9,116.55,18.58,199.65,18.58,199.65h29.56l37.8-202.6s-31-23.47-54.73-34,52.31-164.28,52.31-164.28C1797,668.64,1842.83,574.73,1851.35,557.34Zm-99.84,333.4.07.06c9.49,8,19.32,18.11,23.62,28.27,9.48,22.43-28.3,134.58-32.12,134.58-3.27,0-16,23.18-28.58-43.23-2.12-11.14-4.23-24.81-6.29-41.54,0,0-1.43-96.75,21-94.36A198,198,0,0,1,1751.51,890.74Z" transform="translate(-3.44 -75)"/><path class="cls-55" d="M1853.65,532.43l-79.76,3.47s-18.39,2.4-25.32,18.68c0,0,48.82,9.52,90.21-4.94C1838.78,549.64,1851,531.84,1853.65,532.43Z" transform="translate(-3.44 -75)"/><path class="cls-56" d="M1853.32,532.45l.34,0A.8.8,0,0,0,1853.32,532.45Z" transform="translate(-3.44 -75)"/><path class="cls-56" d="M1775.56,539.25l73.57-3.2c1.76-2,3.3-3.41,4.19-3.6l-79.43,3.45s-18.39,2.4-25.32,18.68c0,0,1.1.21,3.07.52C1759.35,541.37,1775.56,539.25,1775.56,539.25Z" transform="translate(-3.44 -75)"/><path class="cls-57" d="M1162.72,591.66c-1.42-.56-7-11.23-10.26-17.72-6.41.85-11.12,3-12.73,7.17,0,0-25.51-13.25-34.21-27.29s-39.11-42.9-47.37-32.41,18.62,21.91,23.7,37.14c4.25,5.91,22.48,23.89,24.61,25.67s1,7,1,7l-62.43-63.15c-22.69,2,21.37,48.61,21.37,48.61-3.38,3.3,21.81,37.93,21.81,37.93,5.26,20.49,52.6,48.88,52.6,48.88l4.91,11.28s36.5-44.79,36.32-46.79S1164.76,592.46,1162.72,591.66Z" transform="translate(-3.44 -75)"/><path class="cls-58" d="M1838.89,549.48s-37.3,14.16-90.2,4.94c0,0-93.73,167.15-108.78,245.1,0,0-36.54,93.76-7.52,171.71s81.2,108.12,81.2,108.12S1600.86,973.5,1838.89,549.48Z" transform="translate(-3.44 -75)"/><path class="cls-59" d="M1428.3,377.56s4.35,20.24-27.19,47.86c0,0-12.4,25.71-29.61,38.16s-14.58,36.4-10.89,37.36c0,0-23.08,23-21.87,24.9s-1-35.92,2.24-42.15-7.84-22-7.84-22-.49-20.75-3.76-23.14-13.67-18-13.67-18-16.84,27.76-26.87,36.86c0,0,.48,31.61,2.87,32.57s-16.24,19.52-25.92,55.08-22.21,116.75-17.91,122.14-76.82-48.86-73.81-61.31-35.21,69-35.21,69l29.17,12c.94.42,12.55,51,96.93,104.91,0,0,22-.07,42-19.68l13.67,3.86s10.21,36.4,12.12,60.83,4.41,30.2-12.12,52.46c0,0,4,17.91,6.87,19.13s188.19,55.59,208.73,39.41,56.36,21.19,56.36,21.19,21-19.64,11.47-57S1596,738.5,1596,738.5s9.55-46.94.47-112.08c0,0,10-47.41,12.42-47.41s-2.86-61.31-59.7-112.08c0,0-74-45-84.55-51.26S1434,366.73,1428.3,377.56Z" transform="translate(-3.44 -75)"/><path class="cls-60" d="M1218.06,756.74c-10.38-4.64-35.27-43.88-38.25-45.91L1168,686.77l-29.17-12L1153,645.4l6.87-14.31" transform="translate(-3.44 -75)"/><path class="cls-61" d="M1306.46,450.07c3.27,2.39,3.76,23.14,3.76,23.14s10.9,15.7,7.84,22c-7.13,14.74,2.53,31.58,2.13,37.91,2.83-5.1,18.87-8.46,18.87-8.46,0-1.3.11-25.44,2.38-42.39,1.35-6.9-8.3-20.64-8.3-20.64s-.49-20.74-3.76-23.14-13.67-18-13.67-18-7.25,11.95-15.07,22.74C1303,446.36,1305.23,449.16,1306.46,450.07Z" transform="translate(-3.44 -75)"/><path class="cls-61" d="M1284.07,783.55a74.56,74.56,0,0,1-7,6.06,66.67,66.67,0,0,0,11.94-4.68Z" transform="translate(-3.44 -75)"/><path class="cls-61" d="M1549.16,466.93s-74-45-84.55-51.26-30.59-48.94-36.31-38.11c0,0,2,9.38-6.65,24.08,7.07,10.13,14.77,22.46,20,25.58,10.51,6.21,84.55,51.26,84.55,51.26,56.84,50.77,62.09,112.07,59.7,112.07S1573.52,638,1573.52,638c9.08,65.14-.47,112.08-.47,112.08s-1.44,136,8.12,173.38c3.72,14.55,2.79,26.4.29,35.47a123.65,123.65,0,0,1,11.16,10s21-19.64,11.47-57S1596,738.5,1596,738.5s9.55-46.94.47-112.08c0,0,10-47.41,12.42-47.41S1606,517.7,1549.16,466.93Z" transform="translate(-3.44 -75)"/><path class="cls-62" d="M1571.84,899.9s2.27-6.19-33.08-10.76-194.88-14.14-213-4.56c0,0-8.12,10-3.82,16.48,0,0,25.08,7.44,36.42,7.21S1571.84,899.9,1571.84,899.9Z" transform="translate(-3.44 -75)"/><path class="cls-53" d="M1479.42,1078.85l-21-123.38s22-19.16,21-29.7l84.07,4.79,7.64-16.28s11.1,8.62,3.46-14.37c0,0-207.06-16.53-213.51-8.62s0,17,0,17,16.48,6,31.17,6c0,0-.72,24.78,17.55,39.51l16.84,125.06Z" transform="translate(-3.44 -75)"/><path d="M1399.76,942.09a44.91,44.91,0,0,0,3.91,5.6l-.31-2.33A40.59,40.59,0,0,1,1399.76,942.09Z" transform="translate(-3.44 -75)"/><path d="M1385.8,905.85c-10.44,0-21.75-3-27.44-4.78a18.21,18.21,0,0,0,2.72,7.21,116.08,116.08,0,0,0,25.39,5.71A49.56,49.56,0,0,1,1385.8,905.85Z" transform="translate(-3.44 -75)"/><path d="M1574.59,899.91l-4.23-.33c2.43,12.56-5.68,6.27-5.68,6.27L1557,922.13,1473,917.34c1,10.54-21,29.7-21,29.7l21,123.38h-47.46l1.13,8.43h52.78l-21-123.38s22-19.16,21-29.7l84.07,4.79,7.64-16.28S1582.23,922.9,1574.59,899.91Z" transform="translate(-3.44 -75)"/><path class="cls-10" d="M1291.71,667.61c-1.66,0-11.48-8.61-17.35-13.89-6.16,3.39-10.08,7.44-10.08,12.29,0,0-31-3.35-45.37-14.13s-56.47-28-60.72-14.13,27.47,14.85,38.6,28.26c6.62,4.31,32.15,15.33,35,16.28s3.82,6.71,3.82,6.71l-88-39.3c-22.21,10.94,40.74,40.79,40.74,40.79-2.13,4.68,37,29.81,37,29.81C1238.69,739,1297.79,749,1297.79,749l9.41,9.48s19.37-59.77,18.4-61.74S1294.1,667.61,1291.71,667.61Z" transform="translate(-3.44 -75)"/><path class="cls-31" d="M1352.13,637.75S1264.28,643,1264.28,666c0,0-31-3.35-45.37-14.13s-56.47-28-60.72-14.13,27.47,14.85,38.6,28.26c6.62,4.31,32.15,15.33,35,16.28s3.82,6.71,3.82,6.71-39.16-17.72-46.8-21.07-164.31-82.39-164.31-82.39,32.48-49.81,94.57-48.85Z" transform="translate(-3.44 -75)"/><path class="cls-63" d="M1231.8,682.29c-2.86-.95-28.39-12-35-16.28-9.68-11.66-34.91-13.91-38.54-23.43-48.65-24.37-125.94-63.36-125.94-63.36s6.1-9.34,18.06-19.86c-17.1,12.77-25.86,26.18-25.86,26.18s156.66,79,164.31,82.39,46.8,21.07,46.8,21.07S1234.67,683.25,1231.8,682.29Z" transform="translate(-3.44 -75)"/><path class="cls-63" d="M1274.15,653.83c22.95-12.78,78-16.08,78-16.08l-10.66-4.62C1319,635.7,1283.09,641.65,1274.15,653.83Z" transform="translate(-3.44 -75)"/><path class="cls-64" d="M1341.38,627.8l-2.64-9.52-7.57-4.13v-2.33l5.11-3.24-219.51-146.2s-53,45.26-57.32,56.4c0,0-43.34-29.82-49.08-30.89l-5.73,8.62s31.89,10.65,27.59,40.17l-35.11-16.46v4.67s33.32,10.05,20.06,58.91l2.51.72,4.82,1s29.89-51,94.57-48.85l217.7,94.4Z" transform="translate(-3.44 -75)"/><path class="cls-65" d="M1338.74,625.11l-223.4-128.24s-54.1,35.92-55.53,49.57" transform="translate(-3.44 -75)"/><path class="cls-65" d="M1338.74,620.69l-223.4-128.24s-45.5,26.08-55.53,44.16" transform="translate(-3.44 -75)"/><path class="cls-65" d="M1334.13,616.32,1113.78,487.05s-54.33,40-54,42.86" transform="translate(-3.44 -75)"/><path class="cls-65" d="M1059.81,523.81s56-60.33,59.7-57.78L1332.44,611.1" transform="translate(-3.44 -75)"/><path class="cls-66" d="M1458.4,410.41s-34,74.24-31.57,86.46l-14.28,25.62L1381.34,476s-8.54-16.28-16.13,6.71" transform="translate(-3.44 -75)"/><path class="cls-66" d="M1513.81,492.45s-54.38-59.22-64.69-61.05" transform="translate(-3.44 -75)"/><path class="cls-66" d="M1599.79,587.15s3.52-68-47.68-108.72" transform="translate(-3.44 -75)"/><path class="cls-66" d="M1536.74,501.42s39.17,130.75,19.1,217.92" transform="translate(-3.44 -75)"/><path class="cls-66" d="M1461.27,508.12S1452,563.2,1454,569c0,0,45.58-136.5,132.22-46.46" transform="translate(-3.44 -75)"/><path class="cls-67" d="M1458.4,570.39s-7.16,21.93,4.78,45.93c0,0-14.55,9.62-3.45,43.63s3.93,44.54,16.83,60.35-35.35,5.27-37.74,5.27-8.6,2.87-11.46-1.44-9.56,0-10.51,1.44-6.69-1.44-10.51-5.27-10-3.35-14.81,0-73.07-31.3-73.07-31.3-15.49,69.67-17.82,64.71c-2.19-4.67-2-2.16-2-2.16a21.28,21.28,0,0,1-.47,3.89c-.36,1-6.45,18-6.45,18s23.88-11.77,63,25.25c0,0,19.58-1.74,35.34,5.19s24.84,15.06,59.23,28.47c0,0,47.29,6.23,54.45,9.58s22-2.39,35.82,4.79,36.41,4.83,46.63-42.84,10.21-69.71,10.21-69.71" transform="translate(-3.44 -75)"/><path class="cls-61" d="M1577.12,710.09c-.2,5.75.1,29.75-8.57,70.18-10.21,47.67-32.77,50-46.62,42.85s-28.66-1.44-35.82-4.79-54.45-9.58-54.45-9.58c-34.39-13.41-43.47-21.56-59.23-28.48s-35.35-5.19-35.35-5.19c-13.16-12.43-24.58-19.35-34-23.07-.72,1.68-1.27,2.36-1.58,1.7-2.19-4.67-2-2.16-2-2.16a20.63,20.63,0,0,1-.48,3.89c-.36,1-6.45,18-6.45,18s23.88-11.77,63.05,25.25c0,0,19.58-1.74,35.35,5.19s24.83,15.06,59.23,28.47c0,0,47.28,6.23,54.45,9.58s22-2.39,35.82,4.79,36.41,4.83,46.62-42.84,10.22-69.71,10.22-69.71Z" transform="translate(-3.44 -75)"/><path class="cls-66" d="M1352.13,551.68s-14,46.47-10.75,64.64-9.72.52-7.25,64.23v16.23" transform="translate(-3.44 -75)"/><path class="cls-66" d="M1343,791.68s-.16,40,6,47.06-6.68,26.68,11.47,46.32" transform="translate(-3.44 -75)"/><path class="cls-66" d="M1325.6,620.69s-.94-46.47-1.9-69-16.23-49.31-26.16-50.26-8.7-44.07-8.7-44.07,16.06-17.32,26.87-36.86" transform="translate(-3.44 -75)"/><polygon class="cls-9" points="102.56 872 103.81 832.51 620.24 910.86 619.56 945 102.56 872"/></svg>